<svg width="60" height="58" fill="none" xmlns="http://www.w3.org/2000/svg"><g clip-path="url(#clip0)"><path d="M43.958 2.24c-5.075 0-9.945 2.362-13.125 6.095-3.179-3.733-8.05-6.095-13.125-6.095-8.983 0-16.041 7.058-16.041 16.041 0 11.025 9.916 20.009 24.937 33.659l4.23 3.82 4.229-3.85C50.082 38.29 60 29.306 60 18.281 60 9.298 52.942 2.24 43.958 2.24zM31.125 47.594l-.292.291-.291-.291C16.658 35.023 7.5 26.71 7.5 18.28c0-5.833 4.375-10.208 10.208-10.208 4.492 0 8.867 2.887 10.413 6.883h5.454c1.517-3.996 5.892-6.883 10.383-6.883 5.834 0 10.209 4.375 10.209 10.208 0 8.43-9.159 16.742-23.042 29.313z" fill="#C50813"/></g><defs><clipPath id="clip0"><path fill="#fff" d="M0 0h60v58H0z"/></clipPath></defs></svg>