<svg width="25" height="25" fill="none" xmlns="http://www.w3.org/2000/svg"><rect x="1.563" y="1.563" width="21.875" height="21.875" rx="6" fill="url(#paint0_radial)"/><rect x="1.563" y="1.563" width="21.875" height="21.875" rx="6" fill="url(#paint1_radial)"/><rect x="1.563" y="1.563" width="21.875" height="21.875" rx="6" fill="url(#paint2_radial)"/><path d="M17.969 8.203a1.172 1.172 0 11-2.344 0 1.172 1.172 0 012.344 0z" fill="#fff"/><path fill-rule="evenodd" clip-rule="evenodd" d="M12.5 16.406a3.906 3.906 0 100-7.812 3.906 3.906 0 000 7.812zm0-1.562a2.344 2.344 0 100-4.688 2.344 2.344 0 000 4.688z" fill="#fff"/><path fill-rule="evenodd" clip-rule="evenodd" d="M4.688 12.188c0-2.626 0-3.938.51-4.941a4.687 4.687 0 012.049-2.049c1.003-.51 2.315-.51 4.94-.51h.626c2.625 0 3.937 0 4.94.51a4.69 4.69 0 012.049 2.049c.51 1.003.51 2.315.51 4.94v.626c0 2.625 0 3.937-.51 4.94a4.687 4.687 0 01-2.049 2.049c-1.003.51-2.315.51-4.94.51h-.626c-2.625 0-3.937 0-4.94-.51a4.687 4.687 0 01-2.049-2.049c-.51-1.003-.51-2.315-.51-4.94v-.626zm7.5-5.938h.624c1.339 0 2.249.001 2.952.059.685.056 1.035.157 1.28.282.588.3 1.066.777 1.365 1.365.125.245.226.595.282 1.28.058.703.059 1.613.059 2.951v.626c0 1.338-.001 2.248-.059 2.951-.056.685-.157 1.035-.282 1.28a3.125 3.125 0 01-1.365 1.365c-.245.125-.595.226-1.28.282-.703.058-1.613.059-2.951.059h-.626c-1.338 0-2.248-.001-2.951-.059-.685-.056-1.035-.157-1.28-.282a3.125 3.125 0 01-1.365-1.365c-.125-.245-.226-.595-.282-1.28-.058-.703-.059-1.613-.059-2.951v-.626c0-1.338.001-2.248.059-2.951.056-.685.157-1.035.282-1.28.3-.588.777-1.066 1.365-1.365.245-.125.595-.226 1.28-.282.703-.058 1.613-.059 2.951-.059z" fill="#fff"/><defs><radialGradient id="paint0_radial" cx="0" cy="0" r="1" gradientUnits="userSpaceOnUse" gradientTransform="rotate(-55.376 21.809 .051) scale(19.9372)"><stop stop-color="#B13589"/><stop offset=".793" stop-color="#C62F94"/><stop offset="1" stop-color="#8A3AC8"/></radialGradient><radialGradient id="paint1_radial" cx="0" cy="0" r="1" gradientUnits="userSpaceOnUse" gradientTransform="rotate(-65.136 23.255 5.382) scale(17.6518)"><stop stop-color="#E0E8B7"/><stop offset=".445" stop-color="#FB8A2E"/><stop offset=".715" stop-color="#E2425C"/><stop offset="1" stop-color="#E2425C" stop-opacity="0"/></radialGradient><radialGradient id="paint2_radial" cx="0" cy="0" r="1" gradientUnits="userSpaceOnUse" gradientTransform="matrix(30.07813 -4.29687 .91906 6.4334 .39 2.344)"><stop offset=".157" stop-color="#406ADC"/><stop offset=".468" stop-color="#6A45BE"/><stop offset="1" stop-color="#6A45BE" stop-opacity="0"/></radialGradient></defs></svg>