<svg width="63" height="61" fill="none" xmlns="http://www.w3.org/2000/svg"><g clip-path="url(#clip0)"><path d="M41.667 39.367h-2.634l-.933-.9a21.57 21.57 0 005.233-14.1c0-11.967-9.7-21.667-21.666-21.667C9.7 2.7 0 12.4 0 24.367c0 11.966 9.7 21.666 21.667 21.666a21.57 21.57 0 0014.1-5.233l.9.933v2.634L53.333 61l4.967-4.967-16.633-16.666zm-20 0c-8.3 0-15-6.7-15-15s6.7-15 15-15 15 6.7 15 15-6.7 15-15 15z" fill="#C50813"/></g><defs><clipPath id="clip0"><path fill="#fff" d="M0 0h63v61H0z"/></clipPath></defs></svg>