<svg width="25" height="25" fill="none" xmlns="http://www.w3.org/2000/svg"><path fill-rule="evenodd" clip-rule="evenodd" d="M12.5 24.219c6.04 0 10.938-4.897 10.938-10.938 0-6.04-4.897-10.937-10.938-10.937-6.04 0-10.938 4.897-10.938 10.937 0 1.962.517 3.803 1.421 5.395l-1.42 5.543 5.714-1.325a10.889 10.889 0 005.223 1.325zm0-1.683a9.255 9.255 0 10-7.585-3.95l-.828 3.109 3.163-.791a9.212 9.212 0 005.25 1.632z" fill="#BFC8D0"/><path d="M21.875 12.5a9.375 9.375 0 01-9.375 9.375 9.331 9.331 0 01-5.318-1.653l-3.205.8.84-3.148A9.332 9.332 0 013.125 12.5a9.375 9.375 0 1118.75 0z" fill="url(#paint0_linear)"/><path fill-rule="evenodd" clip-rule="evenodd" d="M12.5 23.438c6.04 0 10.938-4.897 10.938-10.938 0-6.04-4.897-10.938-10.938-10.938C6.46 1.563 1.562 6.46 1.562 12.5c0 1.962.517 3.803 1.421 5.395l-1.42 5.543 5.714-1.326a10.888 10.888 0 005.223 1.326zm0-1.683A9.255 9.255 0 103.245 12.5c0 1.973.618 3.803 1.67 5.305l-.828 3.108 3.163-.79a9.212 9.212 0 005.25 1.632z" fill="#fff"/><path d="M9.766 7.422c-.26-.522-.66-.476-1.062-.476-.72 0-1.844.863-1.844 2.468 0 1.316.58 2.757 2.534 4.911 1.886 2.08 4.363 3.155 6.42 3.119 2.057-.037 2.48-1.807 2.48-2.404 0-.265-.164-.398-.277-.434-.701-.336-1.994-.963-2.288-1.08-.294-.118-.448.041-.543.128-.267.254-.796 1.003-.977 1.171-.181.169-.451.084-.563.02-.414-.166-1.534-.664-2.428-1.53-1.104-1.071-1.17-1.44-1.377-1.768-.167-.262-.045-.423.016-.494.238-.274.567-.698.714-.909.148-.21.03-.53-.04-.73-.302-.857-.557-1.574-.765-1.992z" fill="#fff"/><defs><linearGradient id="paint0_linear" x1="20.703" y1="5.469" x2="3.125" y2="21.875" gradientUnits="userSpaceOnUse"><stop stop-color="#5BD066"/><stop offset="1" stop-color="#27B43E"/></linearGradient></defs></svg>