<svg width="50" height="50" viewBox="0 0 50 50" fill="none" xmlns="http://www.w3.org/2000/svg">
<path d="M24.9998 4.16699C13.4998 4.16699 4.1665 13.5003 4.1665 25.0003C4.1665 36.5003 13.4998 45.8337 24.9998 45.8337C36.4998 45.8337 45.8332 36.5003 45.8332 25.0003C45.8332 13.5003 36.4998 4.16699 24.9998 4.16699ZM24.9998 10.417C28.4582 10.417 31.2498 13.2087 31.2498 16.667C31.2498 20.1253 28.4582 22.917 24.9998 22.917C21.5415 22.917 18.7498 20.1253 18.7498 16.667C18.7498 13.2087 21.5415 10.417 24.9998 10.417ZM24.9998 40.0003C19.7915 40.0003 15.1873 37.3337 12.4998 33.292C12.5623 29.1462 20.8332 26.8753 24.9998 26.8753C29.1457 26.8753 37.4373 29.1462 37.4998 33.292C34.8123 37.3337 30.2082 40.0003 24.9998 40.0003Z" fill="#FC503E"/>
</svg>
