<svg width="60" height="58" viewBox="0 0 60 58" fill="none" xmlns="http://www.w3.org/2000/svg">
<g clip-path="url(#clip0)">
<path d="M43.9583 2.23956C38.8833 2.23956 34.0125 4.60206 30.8333 8.3354C27.6542 4.60206 22.7833 2.23956 17.7083 2.23956C8.72499 2.23956 1.66666 9.2979 1.66666 18.2812C1.66666 29.3062 11.5833 38.2896 26.6042 51.9396L30.8333 55.7604L35.0625 51.9104C50.0833 38.2896 60 29.3062 60 18.2812C60 9.2979 52.9417 2.23956 43.9583 2.23956ZM31.125 47.5937L30.8333 47.8854L30.5417 47.5937C16.6583 35.0229 7.49999 26.7104 7.49999 18.2812C7.49999 12.4479 11.875 8.0729 17.7083 8.0729C22.2 8.0729 26.575 10.9604 28.1208 14.9562H33.575C35.0917 10.9604 39.4667 8.0729 43.9583 8.0729C49.7917 8.0729 54.1667 12.4479 54.1667 18.2812C54.1667 26.7104 45.0083 35.0229 31.125 47.5937Z" fill="#C50813"/>
</g>
<defs>
<clipPath id="clip0">
<rect width="60" height="58" fill="white"/>
</clipPath>
</defs>
</svg>
