<svg width="63" height="61" viewBox="0 0 63 61" fill="none" xmlns="http://www.w3.org/2000/svg">
<g clip-path="url(#clip0)">
<path d="M41.6667 39.3667H39.0333L38.1 38.4667C41.3667 34.6667 43.3333 29.7333 43.3333 24.3667C43.3333 12.4 33.6333 2.70001 21.6667 2.70001C9.7 2.70001 0 12.4 0 24.3667C0 36.3333 9.7 46.0333 21.6667 46.0333C27.0333 46.0333 31.9667 44.0667 35.7667 40.8L36.6667 41.7333V44.3667L53.3333 61L58.3 56.0333L41.6667 39.3667ZM21.6667 39.3667C13.3667 39.3667 6.66667 32.6667 6.66667 24.3667C6.66667 16.0667 13.3667 9.36668 21.6667 9.36668C29.9667 9.36668 36.6667 16.0667 36.6667 24.3667C36.6667 32.6667 29.9667 39.3667 21.6667 39.3667Z" fill="#C50813"/>
</g>
<defs>
<clipPath id="clip0">
<rect width="63" height="61" fill="white"/>
</clipPath>
</defs>
</svg>
