<svg width="25" height="25" viewBox="0 0 25 25" fill="none" xmlns="http://www.w3.org/2000/svg">
<path fill-rule="evenodd" clip-rule="evenodd" d="M12.5 24.2188C18.5406 24.2188 23.4375 19.3219 23.4375 13.2812C23.4375 7.24064 18.5406 2.34375 12.5 2.34375C6.45939 2.34375 1.5625 7.24064 1.5625 13.2812C1.5625 15.2429 2.0789 17.0839 2.98318 18.6758L1.5625 24.2188L7.27724 22.8936C8.8292 23.7386 10.6085 24.2188 12.5 24.2188ZM12.5 22.5361C17.6113 22.5361 21.7548 18.3925 21.7548 13.2812C21.7548 8.16996 17.6113 4.02644 12.5 4.02644C7.38871 4.02644 3.24519 8.16996 3.24519 13.2812C3.24519 15.2547 3.86289 17.084 4.9155 18.5861L4.08654 21.6947L7.24995 20.9039C8.74169 21.9333 10.5504 22.5361 12.5 22.5361Z" fill="#BFC8D0"/>
<path d="M21.875 12.5C21.875 17.6777 17.6777 21.875 12.5 21.875C10.5251 21.875 8.69288 21.2644 7.18176 20.2216L3.97727 21.0227L4.817 17.8738C3.75072 16.3521 3.125 14.4991 3.125 12.5C3.125 7.32233 7.32233 3.125 12.5 3.125C17.6777 3.125 21.875 7.32233 21.875 12.5Z" fill="url(#paint0_linear)"/>
<path fill-rule="evenodd" clip-rule="evenodd" d="M12.5 23.4375C18.5406 23.4375 23.4375 18.5406 23.4375 12.5C23.4375 6.45939 18.5406 1.5625 12.5 1.5625C6.45939 1.5625 1.5625 6.45939 1.5625 12.5C1.5625 14.4616 2.0789 16.3026 2.98318 17.8945L1.5625 23.4375L7.27724 22.1123C8.8292 22.9574 10.6085 23.4375 12.5 23.4375ZM12.5 21.7548C17.6113 21.7548 21.7548 17.6113 21.7548 12.5C21.7548 7.38871 17.6113 3.24519 12.5 3.24519C7.38871 3.24519 3.24519 7.38871 3.24519 12.5C3.24519 14.4735 3.86289 16.3027 4.9155 17.8049L4.08654 20.9135L7.24995 20.1226C8.74169 21.152 10.5504 21.7548 12.5 21.7548Z" fill="white"/>
<path d="M9.76564 7.42195C9.50559 6.89963 9.10666 6.94587 8.70365 6.94587C7.98341 6.94587 6.86035 7.80859 6.86035 9.41419C6.86035 10.7301 7.44019 12.1705 9.39408 14.3253C11.2797 16.4048 13.7573 17.4805 15.8142 17.4439C17.8711 17.4072 18.2943 15.6372 18.2943 15.0395C18.2943 14.7745 18.1299 14.6423 18.0166 14.6064C17.3157 14.27 16.0229 13.6432 15.7288 13.5255C15.4346 13.4077 15.281 13.567 15.1856 13.6537C14.9188 13.9079 14.39 14.657 14.209 14.8255C14.0279 14.994 13.758 14.9088 13.6457 14.8451C13.2324 14.6792 12.1117 14.1807 11.2183 13.3147C10.1135 12.2437 10.0487 11.8753 9.84055 11.5473C9.67403 11.2849 9.79622 11.1239 9.8572 11.0535C10.0952 10.7789 10.4239 10.3548 10.5713 10.1441C10.7187 9.9334 10.6017 9.61346 10.5315 9.4142C10.2295 8.55721 9.97368 7.83981 9.76564 7.42195Z" fill="white"/>
<defs>
<linearGradient id="paint0_linear" x1="20.7031" y1="5.46875" x2="3.125" y2="21.875" gradientUnits="userSpaceOnUse">
<stop stop-color="#5BD066"/>
<stop offset="1" stop-color="#27B43E"/>
</linearGradient>
</defs>
</svg>
